<svg width="27" height="27" viewBox="0 0 27 27" fill="none" xmlns="http://www.w3.org/2000/svg">
<path d="M19.4912 10.6877H17.7215C17.6194 10.6876 17.5184 10.6658 17.4255 10.6238C17.3325 10.5818 17.2496 10.5205 17.1823 10.4441L16.4644 9.63732C16.4114 9.57822 16.3464 9.53094 16.2737 9.49857C16.201 9.4662 16.1223 9.44946 16.0427 9.44946C15.963 9.44946 15.8843 9.4662 15.8116 9.49857C15.739 9.53094 15.674 9.57822 15.6209 9.63732L15.0056 10.3288C14.9065 10.4413 14.7844 10.5315 14.6475 10.5934C14.5106 10.6553 14.3621 10.6875 14.2117 10.6877H4.52597C4.24671 11.4844 4.06999 12.3131 4 13.1541H13.1432C13.2224 13.1539 13.3008 13.1378 13.3736 13.1067C13.4464 13.0756 13.5121 13.0301 13.5667 12.9729L14.4201 12.0872C14.4729 12.0329 14.5362 11.9898 14.6061 11.9604C14.676 11.931 14.7511 11.9159 14.827 11.9159H14.8601C14.9399 11.9163 15.0187 11.9332 15.0916 11.9655C15.1645 11.9978 15.2298 12.0448 15.2835 12.1036L16.0013 12.9104C16.0685 12.987 16.1514 13.0484 16.2444 13.0904C16.3374 13.1325 16.4384 13.1542 16.5405 13.1541H24C23.9316 12.3129 23.7548 11.484 23.474 10.6877H19.5045H19.4912Z" fill="black"/>
<path d="M9.53104 18.3404C9.6102 18.3399 9.68846 18.3236 9.76118 18.2925C9.83391 18.2614 9.89963 18.2161 9.95446 18.1593L10.8046 17.2735C10.8578 17.2197 10.9211 17.1769 10.9909 17.1475C11.0607 17.1181 11.1357 17.1028 11.2115 17.1023H11.2479C11.3277 17.1027 11.4065 17.1195 11.4794 17.1518C11.5523 17.1841 11.6176 17.2312 11.6713 17.29L12.3858 18.0967C12.4534 18.1729 12.5363 18.2339 12.6293 18.2759C12.7222 18.3179 12.823 18.3399 12.925 18.3404H23.0375C23.4228 17.5519 23.7009 16.7159 23.8645 15.8543H14.1556C14.0543 15.854 13.9543 15.8324 13.8619 15.7909C13.7696 15.7495 13.6871 15.6892 13.6197 15.6139L12.9019 14.8072C12.8489 14.7473 12.7838 14.6993 12.7108 14.6664C12.6378 14.6335 12.5586 14.6164 12.4784 14.6162C12.3987 14.616 12.3199 14.6329 12.2474 14.6659C12.1749 14.6989 12.1104 14.7471 12.0583 14.8072L11.4431 15.4987C11.343 15.6107 11.2202 15.7003 11.0828 15.7616C10.9453 15.8229 10.7964 15.8545 10.6458 15.8543H4.13574C4.29773 16.718 4.57473 17.5562 4.95942 18.347L9.53104 18.3404Z" fill="black"/>
<path d="M16.7076 7.99091C16.7873 7.99086 16.8662 7.9748 16.9395 7.94368C17.0129 7.91256 17.0791 7.86702 17.1343 7.8098L17.9845 6.92732C18.0369 6.87232 18.1 6.8285 18.1699 6.7985C18.2399 6.7685 18.3152 6.75295 18.3914 6.7528H18.4278C18.5075 6.75258 18.5863 6.76953 18.6588 6.8025C18.7314 6.83546 18.7958 6.88366 18.8479 6.94379L19.5657 7.75053C19.6338 7.82574 19.717 7.88596 19.8098 7.92735C19.9027 7.96874 20.0032 7.99039 20.1049 7.99091H22.0268C21.0918 6.75164 19.88 5.7459 18.4872 5.05325C17.0943 4.36059 15.5587 4 14.0017 4C12.4447 4 10.9091 4.36059 9.51625 5.05325C8.12342 5.7459 6.91157 6.75164 5.97656 7.99091H16.7076Z" fill="black"/>
<path d="M12.8424 20.81H10.2125C10.1109 20.8098 10.0105 20.788 9.91805 20.746C9.82561 20.704 9.7433 20.6427 9.67665 20.5663L8.96213 19.7596C8.90876 19.7004 8.84348 19.6531 8.77053 19.6207C8.69758 19.5883 8.61859 19.5715 8.53871 19.5715C8.45882 19.5715 8.37983 19.5883 8.30688 19.6207C8.23393 19.6531 8.16865 19.7004 8.11529 19.7596L7.4967 20.4642C7.3977 20.5769 7.27565 20.6672 7.13872 20.7291C7.0018 20.791 6.85316 20.8231 6.70278 20.8232H6.66309C7.60189 21.8256 8.73792 22.625 10.0005 23.1715C11.263 23.7181 12.625 24.0002 14.0018 24.0002C15.3786 24.0002 16.7406 23.7181 18.0032 23.1715C19.2657 22.625 20.4017 21.8256 21.3406 20.8232L12.8424 20.81Z" fill="black"/>
</svg>
