<svg width="27" height="27" viewBox="0 0 27 27" fill="none" xmlns="http://www.w3.org/2000/svg">
<path d="M16.4167 12.3713L18.3996 9.00669L23.7442 17.331L23.7467 18.9286L23.7293 7.93543C23.7166 7.66662 23.5739 7.42074 23.3463 7.2757L13.724 1.741C13.499 1.63035 13.2134 1.63168 12.9888 1.74449C12.9584 1.75977 12.93 1.77622 12.9027 1.79433L12.8692 1.81543L3.5291 7.22785L3.49288 7.24447C3.4462 7.26573 3.39918 7.29315 3.35482 7.32471C3.17772 7.45164 3.0601 7.63954 3.02205 7.85004C3.0164 7.88194 3.01208 7.9145 3.01025 7.94739L3.02487 16.9057L8.00318 9.18977C8.62985 8.1667 9.9955 7.83691 11.2633 7.85502L12.7511 7.89423L3.98448 21.9533L5.01786 22.5482L13.8894 7.90852L17.8108 7.89423L8.96213 22.9034L12.6496 25.0245L13.0901 25.2777C13.2766 25.3535 13.4962 25.3573 13.6841 25.2893L23.4417 19.6347L21.5761 20.7157L16.4167 12.3713ZM17.1731 23.2674L13.4488 17.4219L15.7224 13.5638L20.6137 21.2734L17.1731 23.2674Z" fill="#2D374B"/>
<path d="M13.4487 17.422L17.1732 23.2674L20.6136 21.2736L15.7223 13.564L13.4487 17.422Z" fill="#28A0F0"/>
<path d="M23.7465 18.9287L23.744 17.3312L18.3994 9.00684L16.4165 12.3715L21.5761 20.7159L23.4416 19.6348C23.6245 19.4863 23.7354 19.2682 23.747 19.0329L23.7465 18.9287Z" fill="#28A0F0"/>
<path d="M1.3501 20.4352L3.98454 21.9532L12.7511 7.89415L11.2634 7.85494C9.99573 7.83699 8.63007 8.16661 8.00324 9.18968L3.02493 16.9056L1.3501 19.4789V20.4352Z" fill="white"/>
<path d="M17.811 7.89417L13.8896 7.90845L5.01807 22.5482L8.11902 24.3335L8.96217 22.9034L17.811 7.89417Z" fill="white"/>
<path d="M25.3992 7.87392C25.3664 7.05387 24.9223 6.30326 24.2269 5.86615L14.4784 0.260005C13.7905 -0.0863915 12.931 -0.0868898 12.2417 0.259839C12.1603 0.300875 2.7616 5.75185 2.7616 5.75185C2.63152 5.81415 2.50625 5.88841 2.38846 5.97281C1.7676 6.41789 1.38914 7.10936 1.3501 7.86894V19.4791L3.02493 16.9058L3.01031 7.94735C3.0123 7.91462 3.01646 7.88223 3.0221 7.85049C3.05998 7.63967 3.17778 7.45177 3.35488 7.32467C3.39924 7.2931 12.9583 1.75973 12.9887 1.74444C13.2135 1.63164 13.4989 1.63031 13.7239 1.74096L23.3462 7.27566C23.5738 7.4207 23.7165 7.66658 23.7291 7.93539V19.0325C23.7175 19.2678 23.6245 19.4859 23.4416 19.6345L21.576 20.7155L20.6134 21.2734L17.173 23.2672L13.684 25.2891C13.4961 25.3571 13.2763 25.3532 13.09 25.2775L8.96202 22.9032L8.1187 24.3333L11.8286 26.4692C11.9512 26.539 12.0605 26.6008 12.1502 26.6513C12.2891 26.7292 12.3838 26.7812 12.4172 26.7975C12.6808 26.9256 13.0601 27 13.402 27C13.7154 27 14.0211 26.9425 14.3103 26.8292L24.4445 20.9604C25.0262 20.5097 25.3684 19.83 25.3992 19.0939V7.87392Z" fill="#96BEDC"/>
</svg>
