<svg width="27" height="27" viewBox="0 0 27 27" fill="none" xmlns="http://www.w3.org/2000/svg">
<path d="M23.7007 16.4191C22.3649 21.7763 16.9384 25.0365 11.58 23.7006C6.22382 22.365 2.96316 16.9388 4.29955 11.582C5.63469 6.22422 11.0612 2.96363 16.418 4.29925C21.7761 5.63486 25.0364 11.0617 23.7007 16.4191Z" fill="#1A1D23"/>
<path d="M14 8.84028C14.2064 8.83955 14.4089 8.90242 14.5845 9.02177C14.7602 9.14111 14.9019 9.31216 14.9937 9.51556L18.1186 16.3906C18.2033 16.5769 18.2434 16.784 18.2349 16.9922C18.2264 17.2003 18.1697 17.4027 18.0702 17.5799C17.9706 17.7572 17.8315 17.9035 17.666 18.005C17.5006 18.1065 17.3143 18.1597 17.1249 18.1597H10.8751C10.6857 18.1597 10.4994 18.1065 10.334 18.005C10.1685 17.9035 10.0294 17.7572 9.92984 17.5799C9.83027 17.4027 9.77355 17.2003 9.76508 16.9922C9.75661 16.784 9.79666 16.5769 9.88143 16.3906L13.0063 9.51556C13.0981 9.31216 13.2398 9.14111 13.4155 9.02177C13.5911 8.90242 13.7936 8.83955 14 8.84028ZM14 8C13.6518 7.99996 13.3105 8.10656 13.0143 8.30785C12.7182 8.50915 12.4788 8.7972 12.323 9.13972L9.19812 16.0147C9.05511 16.3292 8.98756 16.6787 9.00188 17.0299C9.01621 17.3812 9.11193 17.7226 9.27997 18.0217C9.448 18.3208 9.68276 18.5677 9.96195 18.739C10.2411 18.9102 10.5555 19 10.8751 19H17.1249C17.4445 19 17.7589 18.9102 18.038 18.739C18.3172 18.5677 18.552 18.3208 18.72 18.0217C18.8881 17.7226 18.9838 17.3812 18.9981 17.0299C19.0124 16.6787 18.9449 16.3292 18.8019 16.0147L15.677 9.13972C15.5212 8.7972 15.2818 8.50915 14.9857 8.30785C14.6895 8.10656 14.3482 7.99996 14 8Z" fill="#70D44B"/>
</svg>
