<svg width="27" height="27" viewBox="0 0 27 27" fill="none" xmlns="http://www.w3.org/2000/svg">
<path d="M24.0815 16.5084C22.6923 22.0798 17.0487 25.4705 11.476 24.0812C5.90555 22.6921 2.51446 17.0489 3.90431 11.4778C5.29285 5.90572 10.9364 2.51471 16.5075 3.90374C22.0799 5.29278 25.4707 10.9367 24.0815 16.5084Z" fill="#F7931A"/>
<path d="M18.5789 12.5111C18.7859 11.1272 17.7322 10.3833 16.2913 9.88705L16.7587 8.01247L15.6175 7.7281L15.1625 9.55328C14.8625 9.47853 14.5543 9.40801 14.2481 9.33814L14.7064 7.50092L13.5659 7.21655L13.0982 9.09048C12.8498 9.03393 12.6061 8.97804 12.3694 8.91921L12.3707 8.91336L10.7969 8.52044L10.4933 9.73918C10.4933 9.73918 11.3401 9.9332 11.3222 9.94522C11.7844 10.0606 11.8679 10.3664 11.8539 10.6089L11.3215 12.7444C11.3534 12.7525 11.3947 12.7642 11.4402 12.7824C11.4021 12.773 11.3615 12.7626 11.3196 12.7525L10.5733 15.7441C10.5167 15.8845 10.3734 16.0951 10.0503 16.0152C10.0617 16.0318 9.22084 15.8082 9.22084 15.8082L8.6543 17.1143L10.1394 17.4845C10.4157 17.5537 10.6864 17.6262 10.9529 17.6944L10.4807 19.5905L11.6206 19.8749L12.0883 17.999C12.3997 18.0835 12.702 18.1615 12.9977 18.2349L12.5316 20.102L13.6728 20.3864L14.1451 18.4939C16.0911 18.8622 17.5544 18.7136 18.1703 16.9538C18.6667 15.5368 18.1456 14.7194 17.1218 14.1864C17.8674 14.0145 18.4291 13.5241 18.5789 12.5111ZM15.9715 16.167C15.6188 17.584 13.2327 16.8179 12.4591 16.6259L13.0858 14.114C13.8594 14.307 16.3401 14.6892 15.9715 16.167ZM16.3245 12.4906C16.0027 13.7795 14.0167 13.1247 13.3725 12.9641L13.9407 10.6859C14.5849 10.8464 16.6596 11.1461 16.3245 12.4906Z" fill="white"/>
</svg>
