<svg width="27" height="27" viewBox="0 0 27 27" fill="none" xmlns="http://www.w3.org/2000/svg">
<path d="M23.7007 16.4191C22.3649 21.7763 16.9384 25.0365 11.58 23.7006C6.22382 22.365 2.96316 16.9388 4.29955 11.582C5.63469 6.22422 11.0612 2.96363 16.418 4.29925C21.7761 5.63486 25.0364 11.0617 23.7007 16.4191Z" fill="#002D74"/>
<path d="M14.2125 7L8 10.5947V17.7817L14.2125 21.374L20.4202 17.7817V10.5947L14.2125 7ZM18.581 16.7168L14.2125 19.2442L9.84164 16.7168V11.6572L14.2125 9.12984L18.581 11.6572V16.7168Z" fill="white"/>
<g style="mix-blend-mode:multiply">
<path d="M14.2119 21.374L20.4196 17.7817V10.5947L14.2119 7V9.13224L18.5804 11.6596V16.7192L14.2119 19.2442V21.374Z" fill="white"/>
</g>
<g style="mix-blend-mode:multiply">
<path d="M14.2077 7L8 10.5923V17.7793L14.2077 21.374V19.2418L9.83923 16.7144V11.6548L14.2077 9.12984V7Z" fill="white"/>
</g>
<path d="M17.11 15.8665L14.2105 17.5434L11.3086 15.8665V12.5104L14.2105 10.8311L17.11 12.5104L15.9031 13.2091L14.2105 12.2285L12.5179 13.2091V15.1654L14.2105 16.146L15.9031 15.1654L17.11 15.8665Z" fill="white"/>
</svg>
