<svg width="27" height="27" viewBox="0 0 27 27" fill="none" xmlns="http://www.w3.org/2000/svg">
<path d="M12.4558 2.22989C12.778 2.07851 13.1299 2 13.4862 2C13.8425 2 14.1944 2.07851 14.5166 2.22989V2.22989L20.4897 5.35775C20.6402 5.42482 20.7719 5.5277 20.8732 5.65735C20.9744 5.78701 21.0422 5.93947 21.0705 6.10133H21.0762V21.824C21.0621 22.0007 21.0001 22.1702 20.8968 22.3145C20.7935 22.4588 20.6528 22.5724 20.4897 22.6431V22.6431L14.5178 25.7701C14.1956 25.9215 13.8437 26 13.4874 26C13.1311 26 12.7792 25.9215 12.457 25.7701V25.7701L6.48516 22.6431C6.32393 22.5715 6.18531 22.4575 6.0842 22.3134C5.98309 22.1692 5.9233 22.0003 5.91124 21.8249C5.91124 21.798 5.91124 21.7753 5.91124 21.7556V6.10133C5.93559 5.93901 6.00106 5.78555 6.10148 5.65544C6.2019 5.52534 6.33395 5.42288 6.48516 5.35775L12.4558 2.22989ZM20.1358 14.8731L14.5178 17.8157C14.1956 17.9671 13.8437 18.0456 13.4874 18.0456C13.1311 18.0456 12.7792 17.9671 12.457 17.8157L6.84978 14.8797V21.7929L12.457 24.7137C12.7347 24.8813 13.0401 24.9984 13.3589 25.0597L13.4876 25.0678C13.8377 25.0333 14.1757 24.9215 14.4771 24.7406V24.7406L20.1361 21.7669L20.1358 14.8731ZM4.94003 21.4822C4.91206 21.9183 4.98383 22.355 5.14993 22.7594C5.29246 23.0181 5.50285 23.2334 5.75862 23.3822L5.77691 23.3945C5.84678 23.4411 5.92384 23.4901 6.01679 23.5477L6.12714 23.615L6.46627 23.8178L5.98141 24.6149L5.6018 24.3878L5.53793 24.349C5.42819 24.2818 5.33703 24.2241 5.25217 24.1673C4.34513 23.5609 4.0069 22.8995 4 21.524V21.4822H4.94003ZM13.0162 10.6593C12.975 10.6732 12.9349 10.6903 12.8963 10.7104L6.92414 13.8382L6.90615 13.8481L6.90105 13.8511L6.91034 13.8565L6.92384 13.8639L12.8957 16.9918C12.9343 17.0118 12.9744 17.0289 13.0156 17.0429L13.0162 10.6593ZM13.9586 10.6593V17.0423C13.9998 17.0283 14.0399 17.0112 14.0786 16.9912V16.9912L20.0504 13.8633L20.0684 13.8535L20.0735 13.8505L20.0642 13.8451L20.0507 13.8376L14.0789 10.7101C14.0401 10.6901 13.9999 10.6731 13.9586 10.6593V10.6593ZM20.1355 7.21714L14.7793 10.0227L20.1361 12.8282L20.1355 7.21714ZM6.85037 7.22371V12.8216L12.1946 10.0227L6.85037 7.22371ZM14.0789 3.05413C13.8921 2.97367 13.6908 2.93216 13.4874 2.93216C13.284 2.93216 13.0827 2.97367 12.896 3.05413V3.05413L6.92414 6.18229L6.90615 6.19215L6.90105 6.19514L6.91034 6.20051L6.92384 6.20798L12.8957 9.33584C13.0824 9.4163 13.2837 9.45781 13.4871 9.45781C13.6905 9.45781 13.8918 9.4163 14.0786 9.33584L20.0504 6.20798L20.0684 6.19812L20.0735 6.19514L20.0642 6.18976L20.0507 6.18229L14.0789 3.05413ZM21.0186 3.39709L21.3982 3.62443L21.4621 3.66327C21.5718 3.73049 21.663 3.78815 21.7478 3.84491C22.6549 4.45136 22.9934 5.11278 23 6.4882V6.53003H22.06C22.0879 6.09398 22.0162 5.65729 21.8501 5.25289C21.7077 4.99373 21.4973 4.77801 21.2414 4.62882L21.2231 4.61657C21.1532 4.56996 21.0762 4.52097 20.9832 4.46331L20.8729 4.39609L20.5337 4.19325L21.0186 3.39709Z" fill="#1969FF"/>
</svg>
