<svg width="27" height="27" viewBox="0 0 27 27" fill="none" xmlns="http://www.w3.org/2000/svg">
<path fill-rule="evenodd" clip-rule="evenodd" d="M14 24C8.5 24 4 19.5001 4 13.9502C4.05 8.45032 8.5 3.95041 14.05 4.00041C19.55 4.05041 24 8.50032 24 14.1002C23.95 19.5501 19.5 24 14 24Z" fill="#0090FF"/>
<path fill-rule="evenodd" clip-rule="evenodd" d="M14.9492 12.8005L14.6492 14.4005L17.4992 14.8005L17.2992 15.5505L14.4992 15.1505C14.2992 15.8005 14.1992 16.5005 13.9492 17.1004C13.6992 17.8004 13.4492 18.5004 13.1492 19.1504C12.7492 20.0004 12.0492 20.6004 11.0992 20.7504C10.5492 20.8504 9.94922 20.8004 9.49922 20.4504C9.34922 20.3504 9.19922 20.1504 9.19922 20.0004C9.19922 19.8004 9.29922 19.5504 9.44922 19.4504C9.54922 19.4004 9.79922 19.4504 9.94922 19.5004C10.0992 19.6504 10.2492 19.8504 10.3492 20.0504C10.6492 20.4504 11.0492 20.5004 11.4492 20.2004C11.8992 19.8004 12.1492 19.2504 12.2992 18.7004C12.5992 17.5004 12.8992 16.3505 13.1492 15.1505V14.9505L10.4992 14.5505L10.5992 13.8005L13.3492 14.2005L13.6992 12.6505L10.8492 12.2005L10.9492 11.4006L13.8992 11.8006C13.9992 11.5006 14.0492 11.2506 14.1492 11.0006C14.3992 10.1006 14.6492 9.20061 15.2492 8.40062C15.8492 7.60064 16.5492 7.10065 17.5992 7.15065C18.0492 7.15065 18.4992 7.30065 18.7992 7.65064C18.8492 7.70064 18.9492 7.80064 18.9492 7.90063C18.9492 8.10063 18.9492 8.35062 18.7992 8.50062C18.5992 8.65062 18.3492 8.60062 18.1492 8.40062C17.9992 8.25063 17.8992 8.10063 17.7492 7.95063C17.4492 7.55064 16.9992 7.50064 16.6492 7.85063C16.3992 8.10063 16.1492 8.45062 15.9992 8.80062C15.6492 9.85059 15.3992 10.9506 15.0492 12.0505L17.7992 12.4505L17.5992 13.2005L14.9492 12.8005Z" fill="white"/>
</svg>
