<svg width="27" height="27" viewBox="0 0 27 27" fill="none" xmlns="http://www.w3.org/2000/svg">
<g clip-path="url(#clip0_3484_6474)">
<path d="M14.0024 23.9718C19.506 23.9718 23.9676 19.5009 23.9676 13.9859C23.9676 8.47083 19.506 4 14.0024 4C8.4987 4 4.03711 8.47083 4.03711 13.9859C4.03711 19.5009 8.4987 23.9718 14.0024 23.9718Z" fill="#B4F9BA"/>
<path d="M11.6258 8.15713L13.9037 6.83892C13.9686 6.80142 14.0491 6.80142 14.1139 6.83892L20.1176 10.3123C20.1825 10.3498 20.2224 10.4192 20.223 10.4942L20.2311 12.8831C20.2311 12.9588 20.1912 13.0288 20.1257 13.0663L17.8509 14.3826C17.7112 14.4639 17.5359 14.3626 17.5353 14.2008L17.5278 12.0568C17.5278 11.9818 17.4872 11.9124 17.4224 11.8749L11.6258 8.52218C11.4854 8.44094 11.4854 8.23841 11.6258 8.15713Z" fill="#010101"/>
<path d="M10.1542 18.9779L7.8769 17.6603C7.81141 17.6228 7.77148 17.5534 7.77148 17.4778V10.531C7.77148 10.456 7.81141 10.3866 7.87628 10.3485L9.93716 9.14652C10.0027 9.10839 10.0831 9.10839 10.148 9.14652L12.4229 10.4629C12.5626 10.5441 12.5632 10.746 12.4235 10.8279L10.5746 11.9061C10.5098 11.9436 10.4699 12.013 10.4699 12.0886V18.796C10.4699 18.9585 10.2946 19.0598 10.1542 18.9786V18.9779Z" fill="#010101"/>
<path d="M20.233 14.8419V17.4771C20.233 17.5527 20.1931 17.6221 20.1276 17.6597L14.1239 21.133C14.059 21.1705 13.9792 21.1705 13.9143 21.133L11.8453 19.9454C11.7798 19.9079 11.7393 19.8379 11.7393 19.7623V17.1302C11.7393 16.9683 11.9139 16.8671 12.0543 16.9471L13.9106 18.0128C13.9754 18.0503 14.0553 18.0497 14.1201 18.0128L19.9167 14.6588C20.0571 14.5775 20.2324 14.6788 20.2324 14.8413L20.233 14.8419Z" fill="#010101"/>
</g>
<defs>
<clipPath id="clip0_3484_6474">
<rect width="20" height="20" fill="white" transform="translate(4 4)"/>
</clipPath>
</defs>
</svg>
