<svg width="27" height="27" viewBox="0 0 27 27" fill="none" xmlns="http://www.w3.org/2000/svg">
<path d="M23.7007 16.4191C22.3649 21.7763 16.9384 25.0365 11.58 23.7006C6.22382 22.365 2.96316 16.9388 4.29955 11.582C5.63469 6.22422 11.0612 2.96363 16.418 4.29925C21.7761 5.63486 25.0364 11.0617 23.7007 16.4191Z" fill="white"/>
<path d="M8.00647 10.3975C8.37674 10.7682 8.74701 11.1324 9.12378 11.5096C8.62359 12.1535 8.42871 12.882 8.5976 13.6885C8.70803 14.2413 8.99386 14.7096 9.4161 15.0803C10.2671 15.8282 11.6182 16.0234 12.755 15.1388C13.1578 15.5486 13.567 15.9518 13.9763 16.3681C14.3985 15.9388 14.8078 15.5291 15.217 15.1258C16.4772 16.0949 17.9128 15.7827 18.7248 14.9502C19.5758 14.0787 19.7772 12.6673 18.8937 11.5291C19.264 11.1584 19.6343 10.7877 19.9981 10.417C21.4272 12.6023 21.5506 16.3876 18.8872 19.0217C16.3343 21.5517 12.0924 21.6753 9.38362 19.2753C6.55786 16.7778 6.44093 12.869 8.00647 10.3975Z" fill="#133629"/>
<path d="M8.47461 9.72109C11.1704 6.09189 16.822 6.08539 19.5373 9.74711C17.6924 11.5942 15.8476 13.4413 14.0157 15.2755C12.1773 13.4283 10.3325 11.5747 8.47461 9.72109ZM14.0092 13.9877C15.4383 12.5698 16.8674 11.1455 18.303 9.72109C15.9645 7.2626 11.8785 7.37967 9.72184 9.69507C11.1445 11.1194 12.5736 12.5503 14.0092 13.9877Z" fill="#133629"/>
<path d="M18.3349 12.0691C18.887 12.7715 18.8091 13.8252 18.153 14.469C17.5034 15.0999 16.4575 15.1585 15.7949 14.6121C16.6394 13.7601 17.4904 12.9146 18.3349 12.0691Z" fill="#133629"/>
<path d="M12.1968 14.612C11.5213 15.1583 10.4689 15.0868 9.8258 14.4429C9.1827 13.7925 9.11124 12.7453 9.6569 12.0754C10.5014 12.9144 11.3459 13.76 12.1968 14.612Z" fill="#133629"/>
</svg>
