<svg width="27" height="27" viewBox="0 0 27 27" fill="none" xmlns="http://www.w3.org/2000/svg">
<path d="M18.448 5.91404L14.684 11.5C14.623 11.5806 14.5948 11.6814 14.605 11.782C14.6153 11.8825 14.6633 11.9755 14.7393 12.0421C14.8153 12.1088 14.9138 12.1442 15.0148 12.1412C15.1159 12.1382 15.212 12.097 15.284 12.026L18.988 8.82603C19.0093 8.80645 19.036 8.79356 19.0646 8.78897C19.0932 8.78439 19.1225 8.7883 19.1489 8.80023C19.1753 8.81215 19.1976 8.83157 19.2131 8.85606C19.2286 8.88056 19.2365 8.90906 19.236 8.93803V18.996C19.2357 19.0265 19.2261 19.0563 19.2084 19.0812C19.1908 19.1061 19.1659 19.1251 19.1372 19.1355C19.1085 19.1459 19.0773 19.1474 19.0478 19.1396C19.0183 19.1318 18.9918 19.1152 18.972 19.092L7.77199 5.69204C7.59319 5.47691 7.3695 5.3035 7.1166 5.18396C6.8637 5.06442 6.58772 5.00165 6.308 5.00004H5.918C5.40931 5.00004 4.92146 5.20211 4.56177 5.56181C4.20207 5.9215 4 6.40935 4 6.91803V21.082C4 21.5907 4.20207 22.0785 4.56177 22.4382C4.92146 22.7979 5.40931 23 5.918 23V23C6.24576 23 6.56804 22.9159 6.85409 22.7559C7.14015 22.5959 7.38042 22.3653 7.55199 22.086L11.316 16.5C11.377 16.4194 11.4052 16.3187 11.3949 16.2181C11.3847 16.1175 11.3367 16.0246 11.2607 15.9579C11.1846 15.8913 11.0862 15.8559 10.9852 15.8589C10.8841 15.8619 10.7879 15.903 10.716 15.974L7.01199 19.174C6.99064 19.1936 6.964 19.2065 6.93539 19.2111C6.90678 19.2156 6.87746 19.2117 6.85105 19.1998C6.82464 19.1879 6.80232 19.1685 6.78684 19.144C6.77137 19.1195 6.76342 19.091 6.76399 19.062V9.01403C6.7643 8.98349 6.77391 8.95377 6.79155 8.92885C6.8092 8.90392 6.83403 8.88498 6.86273 8.87454C6.89142 8.8641 6.92263 8.86268 6.95216 8.87045C6.98169 8.87822 7.00815 8.89482 7.02799 8.91803L18.228 22.318C18.4081 22.5312 18.6327 22.7025 18.8859 22.8199C19.1391 22.9374 19.4149 22.9982 19.694 22.998H20.094C20.3458 22.998 20.5953 22.9484 20.828 22.852C21.0607 22.7556 21.2721 22.6143 21.4502 22.4362C21.6283 22.2581 21.7696 22.0467 21.866 21.814C21.9624 21.5813 22.012 21.3319 22.012 21.08V6.91803C22.012 6.66515 21.962 6.41475 21.8648 6.18127C21.7677 5.94778 21.6253 5.73581 21.446 5.55755C21.2666 5.37929 21.0537 5.23826 20.8196 5.14258C20.5856 5.0469 20.3349 4.99846 20.082 5.00004V5.00004C19.7542 5.00008 19.4319 5.08411 19.1459 5.24412C18.8598 5.40412 18.6195 5.63477 18.448 5.91404Z" fill="#1A1D23"/>
</svg>
