<svg width="27" height="27" viewBox="0 0 27 27" fill="none" xmlns="http://www.w3.org/2000/svg">
<path d="M14 24C19.5228 24 24 19.5228 24 14C24 8.47715 19.5228 4 14 4C8.47715 4 4 8.47715 4 14C4 19.5228 8.47715 24 14 24Z" fill="#FF0420"/>
<path d="M11.0851 16.6574C10.4896 16.6574 10.0018 16.5173 9.62151 16.2371C9.24623 15.9519 9.05859 15.5466 9.05859 15.0212C9.05859 14.9111 9.07111 14.776 9.09611 14.6159C9.16119 14.2556 9.25375 13.8228 9.37383 13.3174C9.71407 11.9414 10.5922 11.2534 12.0083 11.2534C12.3936 11.2534 12.7388 11.3185 13.044 11.4485C13.3493 11.5736 13.5894 11.7638 13.7646 12.019C13.9397 12.2691 14.0273 12.5694 14.0273 12.9196C14.0273 13.0247 14.0148 13.1573 13.9897 13.3174C13.9147 13.7627 13.8246 14.1956 13.7195 14.6159C13.5444 15.3014 13.2417 15.8143 12.8114 16.1545C12.381 16.4897 11.8056 16.6574 11.0851 16.6574ZM11.1902 15.5766C11.4704 15.5766 11.708 15.494 11.9032 15.3289C12.1034 15.1638 12.246 14.9111 12.331 14.5709C12.4461 14.1005 12.5337 13.6902 12.5937 13.3399C12.6137 13.2349 12.6237 13.1273 12.6237 13.0172C12.6237 12.5619 12.386 12.3342 11.9107 12.3342C11.6305 12.3342 11.3903 12.4167 11.1902 12.5819C10.995 12.747 10.8549 12.9997 10.7699 13.3399C10.6798 13.6752 10.5897 14.0855 10.4997 14.5709C10.4796 14.6709 10.4696 14.776 10.4696 14.8861C10.4696 15.3464 10.7098 15.5766 11.1902 15.5766Z" fill="white"/>
<path d="M14.3693 16.583C14.3142 16.583 14.2717 16.5655 14.2417 16.5304C14.2166 16.4904 14.2091 16.4454 14.2191 16.3953L15.2549 11.5167C15.2649 11.4617 15.2924 11.4167 15.3375 11.3816C15.3825 11.3466 15.43 11.3291 15.4801 11.3291H17.4765C18.0319 11.3291 18.4773 11.4442 18.8125 11.6743C19.1528 11.9045 19.3229 12.2373 19.3229 12.6726C19.3229 12.7977 19.3079 12.9278 19.2779 13.0629C19.1528 13.6383 18.9001 14.0636 18.5198 14.3388C18.1445 14.614 17.6291 14.7516 16.9737 14.7516H15.9604L15.6152 16.3953C15.6051 16.4504 15.5776 16.4954 15.5326 16.5304C15.4876 16.5655 15.44 16.583 15.39 16.583H14.3693ZM17.0262 13.7159C17.2363 13.7159 17.419 13.6583 17.5741 13.5432C17.7342 13.4281 17.8393 13.263 17.8893 13.0479C17.9043 12.9628 17.9119 12.8877 17.9119 12.8227C17.9119 12.6776 17.8693 12.5675 17.7843 12.4925C17.6992 12.4124 17.5541 12.3724 17.3489 12.3724H16.4483L16.1631 13.7159H17.0262Z" fill="white"/>
</svg>
