<svg width="27" height="27" viewBox="0 0 27 27" fill="none" xmlns="http://www.w3.org/2000/svg">
<g clip-path="url(#clip0_1324_3084)">
<path d="M22.9022 18.4033L19.7656 21.7685C19.6975 21.8416 19.615 21.8999 19.5233 21.9397C19.4316 21.9795 19.3327 22.0001 19.2328 22H4.36413C4.29318 22 4.22378 21.9793 4.16445 21.9403C4.10513 21.9014 4.05846 21.846 4.03018 21.7809C4.0019 21.7158 3.99324 21.6439 4.00527 21.5739C4.01731 21.504 4.0495 21.4391 4.0979 21.3872L7.23679 18.022C7.3048 17.9491 7.38702 17.8909 7.47839 17.8511C7.56978 17.8113 7.66836 17.7906 7.76804 17.7905H22.6359C22.7068 17.7905 22.7762 17.8112 22.8356 17.8501C22.8948 17.8891 22.9415 17.9445 22.9699 18.0096C22.9981 18.0747 23.0068 18.1466 22.9947 18.2165C22.9827 18.2865 22.9505 18.3514 22.9022 18.4033ZM19.7656 11.6268C19.6975 11.5537 19.615 11.4954 19.5233 11.4555C19.4316 11.4157 19.3327 11.3952 19.2328 11.3952H4.36413C4.29318 11.3952 4.22378 11.416 4.16445 11.4549C4.10513 11.4938 4.05846 11.5492 4.03018 11.6143C4.0019 11.6794 3.99324 11.7514 4.00527 11.8213C4.01731 11.8912 4.0495 11.9561 4.0979 12.0081L7.23679 15.3732C7.3048 15.4462 7.38702 15.5043 7.47839 15.5441C7.56978 15.5839 7.66836 15.6046 7.76804 15.6048H22.6359C22.7068 15.6048 22.7762 15.584 22.8356 15.5451C22.8948 15.5062 22.9415 15.4508 22.9699 15.3857C22.9981 15.3206 23.0068 15.2486 22.9947 15.1787C22.9827 15.1088 22.9505 15.0439 22.9022 14.9919L19.7656 11.6268ZM4.36413 9.20953H19.2328C19.3327 9.20957 19.4316 9.18905 19.5233 9.14922C19.615 9.10938 19.6975 9.0511 19.7656 8.978L22.9022 5.61281C22.9505 5.56092 22.9827 5.49601 22.9947 5.42606C23.0068 5.35612 22.9981 5.28418 22.9699 5.21908C22.9415 5.15399 22.8948 5.09858 22.8356 5.05966C22.7762 5.02074 22.7068 5 22.6359 5H7.76804C7.66836 5.00017 7.56978 5.02081 7.47839 5.06063C7.38702 5.10045 7.3048 5.15862 7.23679 5.23152L4.09871 8.59672C4.05036 8.64855 4.01818 8.7134 4.00612 8.78325C3.99406 8.85313 4.00265 8.92501 4.03082 8.99007C4.059 9.05514 4.10555 9.11054 4.16476 9.14953C4.22396 9.18851 4.29325 9.20935 4.36413 9.20953Z" fill="url(#paint0_linear_1324_3084)"/>
</g>
<defs>
<linearGradient id="paint0_linear_1324_3084" x1="5.60382" y1="22.4052" x2="21.2033" y2="4.82728" gradientUnits="userSpaceOnUse">
<stop offset="0.08" stop-color="#9945FF"/>
<stop offset="0.3" stop-color="#8752F3"/>
<stop offset="0.5" stop-color="#5497D5"/>
<stop offset="0.6" stop-color="#43B4CA"/>
<stop offset="0.72" stop-color="#28E0B9"/>
<stop offset="0.97" stop-color="#19FB9B"/>
</linearGradient>
<clipPath id="clip0_1324_3084">
<rect width="19" height="17" fill="white" transform="translate(4 5)"/>
</clipPath>
</defs>
</svg>
