<svg width="27" height="27" viewBox="0 0 27 27" fill="none" xmlns="http://www.w3.org/2000/svg">
<path d="M23.9222 13.961C23.9222 19.4623 19.4626 23.9219 13.9613 23.9219C8.45991 23.9219 4 19.4623 4 13.961C4 8.45962 8.45991 4 13.9613 4C19.4626 4 23.9222 8.45962 23.9222 13.961Z" fill="#29296E"/>
<path d="M18.5964 11.2976L18.3431 10.515C18.2916 10.3559 18.166 10.232 18.0063 10.1832L17.2199 9.94136C17.111 9.90812 17.1102 9.75455 17.2181 9.71954L18.001 9.46625C18.1598 9.41476 18.2837 9.28915 18.3328 9.1294L18.5743 8.34303C18.6076 8.23448 18.7611 8.2333 18.7962 8.34156L19.0495 9.1241C19.1009 9.28297 19.2266 9.40682 19.3863 9.45595L20.1727 9.69748C20.2815 9.73102 20.2827 9.88429 20.1744 9.9193L19.3916 10.1726C19.2327 10.2241 19.1089 10.35 19.0597 10.5097L18.8182 11.2958C18.785 11.4047 18.6314 11.4058 18.5964 11.2976Z" fill="#FAFAFA"/>
<path d="M4.90625 13.8031C5.14307 13.3392 5.61142 12.9897 6.09801 12.7688C6.5896 12.5502 7.13003 12.416 7.66075 12.3725C8.73219 12.2757 9.77597 12.4549 10.7268 12.7647C11.2166 12.9106 11.655 13.1133 12.1077 13.318C12.3278 13.4239 12.5346 13.544 12.7476 13.6599L13.336 14.0008C13.982 14.3968 14.6083 14.7475 15.1967 15.0199C15.7866 15.29 16.3196 15.4727 16.8221 15.5659C17.3246 15.6604 17.8353 15.6592 18.4634 15.515C19.0865 15.3741 19.7875 15.0702 20.5204 14.6804C21.2576 14.2903 22.0137 13.812 22.8762 13.3445C22.7897 14.3215 22.5132 15.2376 22.0813 16.1222C21.6389 16.9963 21.0234 17.8488 20.1262 18.5393C19.2459 19.2354 18.0371 19.7205 16.8065 19.7934C15.5753 19.8767 14.4042 19.6054 13.4077 19.1974C12.4075 18.7835 11.5432 18.2395 10.7771 17.6391C10.5656 17.4732 10.452 17.379 10.2958 17.2469L9.85952 16.8648C9.56563 16.6347 9.28085 16.3596 8.9899 16.1317C8.40946 15.6465 7.8352 15.1605 7.20564 14.7393C6.88821 14.5251 6.56077 14.3265 6.18951 14.1506C6.00505 14.0656 5.80912 13.9864 5.59877 13.9241C5.38343 13.8537 5.16455 13.812 4.90625 13.8031Z" fill="#FF4F0A"/>
<path d="M4.90625 13.8032C5.02716 12.798 5.49581 11.8551 6.24687 11.0525C6.99411 10.2576 8.16146 9.64483 9.45678 9.56363C10.096 9.52098 10.745 9.59217 11.3416 9.7575C11.9356 9.92225 12.4922 10.1623 12.9938 10.445C13.2445 10.5871 13.4789 10.7425 13.7125 10.8993L14.335 11.3705L15.3067 12.1372C15.9375 12.6394 16.5394 13.1039 17.0957 13.4875C17.6573 13.8717 18.1357 14.1524 18.5925 14.3169C19.0453 14.4963 19.6172 14.5422 20.3733 14.3522C20.7487 14.2657 21.1402 14.1077 21.558 13.9365C21.9734 13.7611 22.4046 13.552 22.8762 13.3446C22.8195 13.85 22.7168 14.3533 22.5217 14.8237C22.3343 15.3006 22.0875 15.7672 21.7424 16.2023C21.5659 16.4141 21.3768 16.6271 21.1561 16.8236C20.9355 17.0155 20.691 17.1976 20.4209 17.3573C19.8823 17.6694 19.2433 17.8974 18.5878 17.9786C17.9324 18.061 17.2743 18.0198 16.675 17.8927C16.0725 17.7692 15.5236 17.57 15.0196 17.3399C14.0152 16.8728 13.175 16.2856 12.4322 15.6639C12.0592 15.3536 11.7094 15.0294 11.3781 14.7002L10.9869 14.3074C10.8689 14.1936 10.7497 14.0791 10.6318 13.9744C10.1564 13.554 9.71507 13.2328 9.22907 13.0324C8.7466 12.8227 8.1291 12.7365 7.37156 12.8783C6.61696 13.0186 5.78911 13.3449 4.90625 13.8032Z" fill="#FAFAFA"/>
<path d="M8.8866 18.9869C8.8866 19.2843 8.64536 19.5256 8.34794 19.5256C8.05051 19.5256 7.80957 19.2843 7.80957 18.9869C7.80957 18.6895 8.05051 18.4482 8.34794 18.4482C8.64536 18.4482 8.8866 18.6895 8.8866 18.9869Z" fill="#FAFAFA"/>
<path d="M8.8866 18.9869C8.8866 19.2843 8.64536 19.5256 8.34794 19.5256C8.05051 19.5256 7.80957 19.2843 7.80957 18.9869C7.80957 18.6895 8.05051 18.4482 8.34794 18.4482C8.64536 18.4482 8.8866 18.6895 8.8866 18.9869Z" fill="#FAFAFA"/>
</svg>
