<svg width="27" height="27" viewBox="0 0 27 27" fill="none" xmlns="http://www.w3.org/2000/svg">
<path d="M15.7328 23.8499C14.2438 23.8499 13.1593 23.4942 12.4779 22.7828C11.7972 22.0717 11.4565 21.3048 11.4565 20.483C11.4565 20.1825 11.5158 19.9297 11.6346 19.7243C11.7505 19.5216 11.9187 19.3536 12.1219 19.2379C12.3277 19.1194 12.581 19.0602 12.8821 19.0602C13.1832 19.0602 13.4361 19.1194 13.6423 19.2379C13.8481 19.3565 14.0105 19.5188 14.1293 19.7243C14.248 19.9297 14.3073 20.1825 14.3073 20.483C14.3073 20.8466 14.2202 21.1428 14.0461 21.3721C13.8717 21.6014 13.6659 21.7513 13.4283 21.8229C13.6344 22.107 13.9591 22.3085 14.4025 22.4271C14.846 22.5538 15.2894 22.6169 15.7328 22.6169C16.3504 22.6169 16.9087 22.451 17.4077 22.1191C17.9065 21.7869 18.275 21.297 18.5126 20.649C18.7501 20.0009 18.8689 19.2657 18.8689 18.4436C18.8689 17.5506 18.738 16.7876 18.4769 16.1555C18.2233 15.5154 17.8472 15.0411 17.3482 14.7328C16.8645 14.429 16.3043 14.2687 15.7328 14.2706C15.3525 14.2706 14.8777 14.4287 14.3073 14.7448L13.262 15.2665V14.7448L17.966 8.48503H11.4565V14.9816C11.4565 15.5193 11.5753 15.9619 11.8129 16.3097C12.0505 16.6576 12.4147 16.8313 12.906 16.8313C13.2856 16.8313 13.6501 16.7049 13.9987 16.4518C14.3494 16.1965 14.6546 15.884 14.9013 15.5274C14.933 15.4559 14.9726 15.4046 15.0201 15.3729C15.0627 15.3353 15.1176 15.3143 15.1745 15.3138C15.2616 15.3138 15.3643 15.3573 15.4835 15.4445C15.5944 15.5706 15.6497 15.7169 15.6497 15.8828C15.6361 15.9946 15.6162 16.1055 15.5901 16.215C15.3211 16.8157 14.9487 17.2739 14.4735 17.5901C14.0109 17.9024 13.4645 18.0678 12.906 18.0644C11.4961 18.0644 10.5219 17.7877 9.98354 17.2347C9.4452 16.6811 9.17587 15.9302 9.17587 14.982V8.48503H5.84961V7.27553H9.17587V4.52533L8.41565 3.76592V3.1499H10.625L11.4562 3.57648V7.27553L20.0566 7.25201L20.912 8.10549L15.6379 13.3694C15.9572 13.2424 16.2933 13.1625 16.6357 13.1323C17.2058 13.1323 17.8472 13.3142 18.56 13.6778C19.2806 14.0334 19.835 14.5237 20.2228 15.1476C20.6109 15.7642 20.8603 16.3571 20.9713 16.9261C21.09 17.4954 21.1496 18.001 21.1496 18.4436C21.1496 19.4555 20.9356 20.3958 20.5082 21.2656C20.0805 22.1348 19.4312 22.7828 18.56 23.2097C17.6888 23.6366 16.7463 23.8499 15.7328 23.8499Z" fill="#2C7DF7"/>
</svg>
