<svg width="64" height="64" viewBox="0 0 64 64" fill="none" xmlns="http://www.w3.org/2000/svg">
<circle cx="32" cy="32" r="32" fill="#F2F8FF"/>
<circle cx="32" cy="32" r="20" fill="#F2F8FF"/>
<path opacity="0.34" d="M46.1392 46.1392L41.8969 41.8969C47.3637 36.43 47.3637 27.5665 41.8969 22.0996C36.43 16.6328 27.5665 16.6328 22.0996 22.0996C16.6328 27.5665 16.6328 36.43 22.0996 41.8969L17.8574 46.1392C10.0475 38.3293 10.0475 25.6672 17.8574 17.8574C25.6672 10.0475 38.3293 10.0475 46.1392 17.8574C53.949 25.6672 53.949 38.3293 46.1392 46.1392Z" fill="url(#paint0_linear)"/>
<path d="M46.1392 17.8574L41.8969 22.0996C36.43 16.6328 27.5665 16.6328 22.0996 22.0996C16.6328 27.5665 16.6328 36.43 22.0996 41.8969L17.8574 46.1392C10.0475 38.3293 10.0475 25.6672 17.8574 17.8574C25.6672 10.0475 38.3293 10.0475 46.1392 17.8574Z" fill="url(#paint1_linear)"/>
<path opacity="0.34" fill-rule="evenodd" clip-rule="evenodd" d="M23.8701 40.1349C21.7861 38.0535 20.4968 35.1766 20.4968 31.9985C20.4968 25.6478 25.6451 20.4995 31.9958 20.4995C38.3465 20.4995 43.4948 25.6478 43.4948 31.9985C43.4948 35.1773 42.205 38.0548 40.1202 40.1362C35.2275 36.6408 28.673 36.7058 23.8701 40.1349Z" fill="url(#paint2_linear)"/>
<rect opacity="0.34" x="24.0032" y="45.9971" width="15.9986" height="4.99956" fill="url(#paint3_linear)"/>
<path fill-rule="evenodd" clip-rule="evenodd" d="M29.8799 29.8727L42.3107 20.9868C42.5358 20.8258 42.8483 20.8776 43.0087 21.1023C43.1328 21.2762 43.1326 21.51 43.0081 21.6842L34.1222 34.1149C32.9481 35.289 31.0466 35.2911 29.8752 34.1197C28.7037 32.9482 28.7058 31.0468 29.8799 29.8727Z" fill="url(#paint4_linear)"/>
<defs>
<linearGradient id="paint0_linear" x1="76.3611" y1="38.6493" x2="49.1416" y2="-5.91258" gradientUnits="userSpaceOnUse">
<stop stop-color="#007BFF" stop-opacity="0.3"/>
<stop offset="1" stop-color="#007BFF"/>
</linearGradient>
<linearGradient id="paint1_linear" x1="18.9667" y1="48.5166" x2="53.1058" y2="34.5833" gradientUnits="userSpaceOnUse">
<stop stop-color="#007BFF" stop-opacity="0.3"/>
<stop offset="1" stop-color="#007BFF"/>
</linearGradient>
<linearGradient id="paint2_linear" x1="16.8445" y1="31.761" x2="31.3323" y2="46.7212" gradientUnits="userSpaceOnUse">
<stop stop-color="#007BFF" stop-opacity="0.3"/>
<stop offset="1" stop-color="#007BFF"/>
</linearGradient>
<linearGradient id="paint3_linear" x1="49.7476" y1="49.8998" x2="47.8391" y2="41.3658" gradientUnits="userSpaceOnUse">
<stop stop-color="#007BFF" stop-opacity="0.3"/>
<stop offset="1" stop-color="#007BFF"/>
</linearGradient>
<linearGradient id="paint4_linear" x1="28.8252" y1="40.3362" x2="44.7553" y2="24.4061" gradientUnits="userSpaceOnUse">
<stop stop-color="#004C9E"/>
<stop offset="1" stop-color="#007BFF"/>
</linearGradient>
</defs>
</svg>
