<svg width="64" height="64" viewBox="0 0 64 64" fill="none" xmlns="http://www.w3.org/2000/svg">
<circle cx="32" cy="32" r="32" fill="#F2F8FF"/>
<path opacity="0.5" fill-rule="evenodd" clip-rule="evenodd" d="M33.3294 29.8713L31.267 27.8089L29.3612 32.038L26.8523 32.8129L18.8927 40.7725C16.9401 42.7251 16.3508 45.3017 18.3034 47.2543C20.256 49.2069 22.8326 48.6177 24.7852 46.6651L32.7436 38.7067L33.4757 36.0585L37.7489 34.2907L35.6865 32.2283L47.1769 20.7378L49.2393 17.4969L48.0608 16.3184L44.8199 18.3808L33.3294 29.8713Z" fill="url(#paint0_linear)"/>
<path fill-rule="evenodd" clip-rule="evenodd" d="M47.1769 20.7377L49.2393 17.4968L48.0608 16.3183L44.8199 18.3807L47.1769 20.7377Z" fill="url(#paint1_linear)"/>
<path opacity="0.55" fill-rule="evenodd" clip-rule="evenodd" d="M19.0575 23.54L15.6734 17.6786C14.6818 18.8424 14.0834 20.3513 14.0834 22C14.0834 25.6819 17.0681 28.6666 20.75 28.6666C21.3472 28.6666 21.9261 28.5881 22.4769 28.4408L41.2729 47.2369C42.5746 48.5386 44.6852 48.5386 45.9869 47.2369C47.2887 45.9351 47.2887 43.8246 45.9869 42.5228L27.1909 23.7268C27.3382 23.176 27.4167 22.5972 27.4167 22C27.4167 18.4217 24.5975 15.5018 21.0591 15.3403L24.1093 20.6234L22.8334 24.2468L19.0575 23.54ZM44.9167 44.9167C44.9167 45.607 44.3571 46.1667 43.6667 46.1667C42.9763 46.1667 42.4167 45.607 42.4167 44.9167C42.4167 44.2263 42.9763 43.6667 43.6667 43.6667C44.3571 43.6667 44.9167 44.2263 44.9167 44.9167Z" fill="url(#paint2_linear)"/>
<path fill-rule="evenodd" clip-rule="evenodd" d="M33.3323 29.8683L35.6893 32.2253L35.6864 32.2283L37.7488 34.2906L33.4756 36.0584L32.7435 38.7067L26.8505 32.8146L26.8522 32.8128L29.3612 32.038L31.267 27.8088L33.3294 29.8712L33.3323 29.8683Z" fill="url(#paint3_linear)"/>
<defs>
<linearGradient id="paint0_linear" x1="17.3387" y1="54.5991" x2="51.8401" y2="20.0977" gradientUnits="userSpaceOnUse">
<stop stop-color="#007BFF" stop-opacity="0.3"/>
<stop offset="1" stop-color="#007BFF"/>
</linearGradient>
<linearGradient id="paint1_linear" x1="45.9328" y1="16.1467" x2="45.5207" y2="20.5839" gradientUnits="userSpaceOnUse">
<stop stop-color="#007BFF"/>
<stop offset="1" stop-color="#004C9E"/>
</linearGradient>
<linearGradient id="paint2_linear" x1="65.4774" y1="31.126" x2="25.0622" y2="4.71751" gradientUnits="userSpaceOnUse">
<stop stop-color="#007BFF" stop-opacity="0.3"/>
<stop offset="1" stop-color="#007BFF"/>
</linearGradient>
<linearGradient id="paint3_linear" x1="26.3223" y1="49.491" x2="38.9698" y2="34.1321" gradientUnits="userSpaceOnUse">
<stop stop-color="#004C9E"/>
<stop offset="1" stop-color="#007BFF"/>
</linearGradient>
</defs>
</svg>
