<svg width="64" height="64" viewBox="0 0 64 64" fill="none" xmlns="http://www.w3.org/2000/svg">
<circle cx="32" cy="32" r="32" fill="#F2F8FF"/>
<rect opacity="0.35" x="15.6" y="23" width="33.6" height="21.6" fill="url(#paint0_linear)"/>
<path fill-rule="evenodd" clip-rule="evenodd" d="M52.8353 32.5549C53.7371 31.9171 54.9852 32.1311 55.623 33.0329C56.2609 33.9347 56.0469 35.1828 55.1451 35.8206L36.7756 48.8133L32.355 49.4903L34.4658 45.5476L52.8353 32.5549Z" fill="url(#paint1_linear)"/>
<path opacity="0.55" fill-rule="evenodd" clip-rule="evenodd" d="M47.5333 18.2001C48.4538 18.2001 49.2 18.9463 49.2 19.8667V22.7001H15.6V19.8667C15.6 18.9463 16.3462 18.2001 17.2666 18.2001H47.5333ZM43.2706 20.4501C43.2706 21.1404 42.7175 21.7001 42.0353 21.7001C41.3531 21.7001 40.8 21.1404 40.8 20.4501C40.8 19.7597 41.3531 19.2001 42.0353 19.2001C42.7175 19.2001 43.2706 19.7597 43.2706 20.4501Z" fill="url(#paint2_linear)"/>
<path fill-rule="evenodd" clip-rule="evenodd" d="M46.35 21.7C47.0403 21.7 47.6 21.1403 47.6 20.45C47.6 19.7596 47.0403 19.2 46.35 19.2C45.6596 19.2 45.1 19.7596 45.1 20.45C45.1 21.1403 45.6596 21.7 46.35 21.7Z" fill="url(#paint3_linear)"/>
<defs>
<linearGradient id="paint0_linear" x1="-1.20002" y1="23" x2="-1.20002" y2="44.6" gradientUnits="userSpaceOnUse">
<stop stop-color="#007BFF" stop-opacity="0.3"/>
<stop offset="1" stop-color="#005CCD"/>
</linearGradient>
<linearGradient id="paint1_linear" x1="58.8" y1="26.6" x2="49.0724" y2="21.4753" gradientUnits="userSpaceOnUse">
<stop stop-color="#007BFF" stop-opacity="0.3"/>
<stop offset="1" stop-color="#007BFF"/>
</linearGradient>
<linearGradient id="paint2_linear" x1="32.4" y1="15.9501" x2="31.2159" y2="24.7915" gradientUnits="userSpaceOnUse">
<stop stop-color="#007BFF" stop-opacity="0.3"/>
<stop offset="1" stop-color="#007BFF"/>
</linearGradient>
<linearGradient id="paint3_linear" x1="54.0624" y1="21.3424" x2="47.787" y2="14.9995" gradientUnits="userSpaceOnUse">
<stop stop-color="#004C9E"/>
<stop offset="1" stop-color="#007BFF"/>
</linearGradient>
</defs>
</svg>
