<svg width="311" height="80" viewBox="0 0 311 80" fill="none" xmlns="http://www.w3.org/2000/svg">
<path d="M3 -230C3 -228.895 2.10457 -228 1 -228C-0.10457 -228 -1 -228.895 -1 -230C-1 -231.105 -0.10457 -232 1 -232C2.10457 -232 3 -231.105 3 -230Z" fill="#E5F1FF"/>
<path d="M31 -230C31 -228.895 30.1046 -228 29 -228C27.8954 -228 27 -228.895 27 -230C27 -231.105 27.8954 -232 29 -232C30.1046 -232 31 -231.105 31 -230Z" fill="#E5F1FF"/>
<path d="M59 -230C59 -228.895 58.1046 -228 57 -228C55.8954 -228 55 -228.895 55 -230C55 -231.105 55.8954 -232 57 -232C58.1046 -232 59 -231.105 59 -230Z" fill="#E5F1FF"/>
<path d="M87 -230C87 -228.895 86.1046 -228 85 -228C83.8954 -228 83 -228.895 83 -230C83 -231.105 83.8954 -232 85 -232C86.1046 -232 87 -231.105 87 -230Z" fill="#E5F1FF"/>
<path d="M115 -230C115 -228.895 114.105 -228 113 -228C111.895 -228 111 -228.895 111 -230C111 -231.105 111.895 -232 113 -232C114.105 -232 115 -231.105 115 -230Z" fill="#E5F1FF"/>
<path d="M143 -230C143 -228.895 142.105 -228 141 -228C139.895 -228 139 -228.895 139 -230C139 -231.105 139.895 -232 141 -232C142.105 -232 143 -231.105 143 -230Z" fill="#E5F1FF"/>
<path d="M171 -230C171 -228.895 170.105 -228 169 -228C167.895 -228 167 -228.895 167 -230C167 -231.105 167.895 -232 169 -232C170.105 -232 171 -231.105 171 -230Z" fill="#E5F1FF"/>
<path d="M199 -230C199 -228.895 198.105 -228 197 -228C195.895 -228 195 -228.895 195 -230C195 -231.105 195.895 -232 197 -232C198.105 -232 199 -231.105 199 -230Z" fill="#E5F1FF"/>
<path d="M227 -230C227 -228.895 226.105 -228 225 -228C223.895 -228 223 -228.895 223 -230C223 -231.105 223.895 -232 225 -232C226.105 -232 227 -231.105 227 -230Z" fill="#E5F1FF"/>
<path d="M255 -230C255 -228.895 254.105 -228 253 -228C251.895 -228 251 -228.895 251 -230C251 -231.105 251.895 -232 253 -232C254.105 -232 255 -231.105 255 -230Z" fill="#E5F1FF"/>
<path d="M283 -230C283 -228.895 282.105 -228 281 -228C279.895 -228 279 -228.895 279 -230C279 -231.105 279.895 -232 281 -232C282.105 -232 283 -231.105 283 -230Z" fill="#E5F1FF"/>
<path d="M311 -230C311 -228.895 310.105 -228 309 -228C307.895 -228 307 -228.895 307 -230C307 -231.105 307.895 -232 309 -232C310.105 -232 311 -231.105 311 -230Z" fill="#E5F1FF"/>
<path d="M3 -202C3 -200.895 2.10457 -200 1 -200C-0.10457 -200 -1 -200.895 -1 -202C-1 -203.105 -0.10457 -204 1 -204C2.10457 -204 3 -203.105 3 -202Z" fill="#E5F1FF"/>
<path d="M31 -202C31 -200.895 30.1046 -200 29 -200C27.8954 -200 27 -200.895 27 -202C27 -203.105 27.8954 -204 29 -204C30.1046 -204 31 -203.105 31 -202Z" fill="#E5F1FF"/>
<path d="M59 -202C59 -200.895 58.1046 -200 57 -200C55.8954 -200 55 -200.895 55 -202C55 -203.105 55.8954 -204 57 -204C58.1046 -204 59 -203.105 59 -202Z" fill="#E5F1FF"/>
<path d="M87 -202C87 -200.895 86.1046 -200 85 -200C83.8954 -200 83 -200.895 83 -202C83 -203.105 83.8954 -204 85 -204C86.1046 -204 87 -203.105 87 -202Z" fill="#E5F1FF"/>
<path d="M115 -202C115 -200.895 114.105 -200 113 -200C111.895 -200 111 -200.895 111 -202C111 -203.105 111.895 -204 113 -204C114.105 -204 115 -203.105 115 -202Z" fill="#E5F1FF"/>
<path d="M143 -202C143 -200.895 142.105 -200 141 -200C139.895 -200 139 -200.895 139 -202C139 -203.105 139.895 -204 141 -204C142.105 -204 143 -203.105 143 -202Z" fill="#E5F1FF"/>
<path d="M171 -202C171 -200.895 170.105 -200 169 -200C167.895 -200 167 -200.895 167 -202C167 -203.105 167.895 -204 169 -204C170.105 -204 171 -203.105 171 -202Z" fill="#E5F1FF"/>
<path d="M199 -202C199 -200.895 198.105 -200 197 -200C195.895 -200 195 -200.895 195 -202C195 -203.105 195.895 -204 197 -204C198.105 -204 199 -203.105 199 -202Z" fill="#E5F1FF"/>
<path d="M227 -202C227 -200.895 226.105 -200 225 -200C223.895 -200 223 -200.895 223 -202C223 -203.105 223.895 -204 225 -204C226.105 -204 227 -203.105 227 -202Z" fill="#E5F1FF"/>
<path d="M255 -202C255 -200.895 254.105 -200 253 -200C251.895 -200 251 -200.895 251 -202C251 -203.105 251.895 -204 253 -204C254.105 -204 255 -203.105 255 -202Z" fill="#E5F1FF"/>
<path d="M283 -202C283 -200.895 282.105 -200 281 -200C279.895 -200 279 -200.895 279 -202C279 -203.105 279.895 -204 281 -204C282.105 -204 283 -203.105 283 -202Z" fill="#E5F1FF"/>
<path d="M311 -202C311 -200.895 310.105 -200 309 -200C307.895 -200 307 -200.895 307 -202C307 -203.105 307.895 -204 309 -204C310.105 -204 311 -203.105 311 -202Z" fill="#E5F1FF"/>
<path d="M3 -174C3 -172.895 2.10457 -172 1 -172C-0.10457 -172 -1 -172.895 -1 -174C-1 -175.105 -0.10457 -176 1 -176C2.10457 -176 3 -175.105 3 -174Z" fill="#E5F1FF"/>
<path d="M31 -174C31 -172.895 30.1046 -172 29 -172C27.8954 -172 27 -172.895 27 -174C27 -175.105 27.8954 -176 29 -176C30.1046 -176 31 -175.105 31 -174Z" fill="#E5F1FF"/>
<path d="M59 -174C59 -172.895 58.1046 -172 57 -172C55.8954 -172 55 -172.895 55 -174C55 -175.105 55.8954 -176 57 -176C58.1046 -176 59 -175.105 59 -174Z" fill="#E5F1FF"/>
<path d="M87 -174C87 -172.895 86.1046 -172 85 -172C83.8954 -172 83 -172.895 83 -174C83 -175.105 83.8954 -176 85 -176C86.1046 -176 87 -175.105 87 -174Z" fill="#E5F1FF"/>
<path d="M115 -174C115 -172.895 114.105 -172 113 -172C111.895 -172 111 -172.895 111 -174C111 -175.105 111.895 -176 113 -176C114.105 -176 115 -175.105 115 -174Z" fill="#E5F1FF"/>
<path d="M143 -174C143 -172.895 142.105 -172 141 -172C139.895 -172 139 -172.895 139 -174C139 -175.105 139.895 -176 141 -176C142.105 -176 143 -175.105 143 -174Z" fill="#E5F1FF"/>
<path d="M171 -174C171 -172.895 170.105 -172 169 -172C167.895 -172 167 -172.895 167 -174C167 -175.105 167.895 -176 169 -176C170.105 -176 171 -175.105 171 -174Z" fill="#E5F1FF"/>
<path d="M199 -174C199 -172.895 198.105 -172 197 -172C195.895 -172 195 -172.895 195 -174C195 -175.105 195.895 -176 197 -176C198.105 -176 199 -175.105 199 -174Z" fill="#E5F1FF"/>
<path d="M227 -174C227 -172.895 226.105 -172 225 -172C223.895 -172 223 -172.895 223 -174C223 -175.105 223.895 -176 225 -176C226.105 -176 227 -175.105 227 -174Z" fill="#E5F1FF"/>
<path d="M255 -174C255 -172.895 254.105 -172 253 -172C251.895 -172 251 -172.895 251 -174C251 -175.105 251.895 -176 253 -176C254.105 -176 255 -175.105 255 -174Z" fill="#E5F1FF"/>
<path d="M283 -174C283 -172.895 282.105 -172 281 -172C279.895 -172 279 -172.895 279 -174C279 -175.105 279.895 -176 281 -176C282.105 -176 283 -175.105 283 -174Z" fill="#E5F1FF"/>
<path d="M311 -174C311 -172.895 310.105 -172 309 -172C307.895 -172 307 -172.895 307 -174C307 -175.105 307.895 -176 309 -176C310.105 -176 311 -175.105 311 -174Z" fill="#E5F1FF"/>
<path d="M3 -146C3 -144.895 2.10457 -144 1 -144C-0.10457 -144 -1 -144.895 -1 -146C-1 -147.105 -0.10457 -148 1 -148C2.10457 -148 3 -147.105 3 -146Z" fill="#E5F1FF"/>
<path d="M31 -146C31 -144.895 30.1046 -144 29 -144C27.8954 -144 27 -144.895 27 -146C27 -147.105 27.8954 -148 29 -148C30.1046 -148 31 -147.105 31 -146Z" fill="#E5F1FF"/>
<path d="M59 -146C59 -144.895 58.1046 -144 57 -144C55.8954 -144 55 -144.895 55 -146C55 -147.105 55.8954 -148 57 -148C58.1046 -148 59 -147.105 59 -146Z" fill="#E5F1FF"/>
<path d="M87 -146C87 -144.895 86.1046 -144 85 -144C83.8954 -144 83 -144.895 83 -146C83 -147.105 83.8954 -148 85 -148C86.1046 -148 87 -147.105 87 -146Z" fill="#E5F1FF"/>
<path d="M115 -146C115 -144.895 114.105 -144 113 -144C111.895 -144 111 -144.895 111 -146C111 -147.105 111.895 -148 113 -148C114.105 -148 115 -147.105 115 -146Z" fill="#E5F1FF"/>
<path d="M143 -146C143 -144.895 142.105 -144 141 -144C139.895 -144 139 -144.895 139 -146C139 -147.105 139.895 -148 141 -148C142.105 -148 143 -147.105 143 -146Z" fill="#E5F1FF"/>
<path d="M171 -146C171 -144.895 170.105 -144 169 -144C167.895 -144 167 -144.895 167 -146C167 -147.105 167.895 -148 169 -148C170.105 -148 171 -147.105 171 -146Z" fill="#E5F1FF"/>
<path d="M199 -146C199 -144.895 198.105 -144 197 -144C195.895 -144 195 -144.895 195 -146C195 -147.105 195.895 -148 197 -148C198.105 -148 199 -147.105 199 -146Z" fill="#E5F1FF"/>
<path d="M227 -146C227 -144.895 226.105 -144 225 -144C223.895 -144 223 -144.895 223 -146C223 -147.105 223.895 -148 225 -148C226.105 -148 227 -147.105 227 -146Z" fill="#E5F1FF"/>
<path d="M255 -146C255 -144.895 254.105 -144 253 -144C251.895 -144 251 -144.895 251 -146C251 -147.105 251.895 -148 253 -148C254.105 -148 255 -147.105 255 -146Z" fill="#E5F1FF"/>
<path d="M283 -146C283 -144.895 282.105 -144 281 -144C279.895 -144 279 -144.895 279 -146C279 -147.105 279.895 -148 281 -148C282.105 -148 283 -147.105 283 -146Z" fill="#E5F1FF"/>
<path d="M311 -146C311 -144.895 310.105 -144 309 -144C307.895 -144 307 -144.895 307 -146C307 -147.105 307.895 -148 309 -148C310.105 -148 311 -147.105 311 -146Z" fill="#E5F1FF"/>
<path d="M3 -118C3 -116.895 2.10457 -116 1 -116C-0.10457 -116 -1 -116.895 -1 -118C-1 -119.105 -0.10457 -120 1 -120C2.10457 -120 3 -119.105 3 -118Z" fill="#E5F1FF"/>
<path d="M31 -118C31 -116.895 30.1046 -116 29 -116C27.8954 -116 27 -116.895 27 -118C27 -119.105 27.8954 -120 29 -120C30.1046 -120 31 -119.105 31 -118Z" fill="#E5F1FF"/>
<path d="M59 -118C59 -116.895 58.1046 -116 57 -116C55.8954 -116 55 -116.895 55 -118C55 -119.105 55.8954 -120 57 -120C58.1046 -120 59 -119.105 59 -118Z" fill="#E5F1FF"/>
<path d="M87 -118C87 -116.895 86.1046 -116 85 -116C83.8954 -116 83 -116.895 83 -118C83 -119.105 83.8954 -120 85 -120C86.1046 -120 87 -119.105 87 -118Z" fill="#E5F1FF"/>
<path d="M115 -118C115 -116.895 114.105 -116 113 -116C111.895 -116 111 -116.895 111 -118C111 -119.105 111.895 -120 113 -120C114.105 -120 115 -119.105 115 -118Z" fill="#E5F1FF"/>
<path d="M143 -118C143 -116.895 142.105 -116 141 -116C139.895 -116 139 -116.895 139 -118C139 -119.105 139.895 -120 141 -120C142.105 -120 143 -119.105 143 -118Z" fill="#E5F1FF"/>
<path d="M171 -118C171 -116.895 170.105 -116 169 -116C167.895 -116 167 -116.895 167 -118C167 -119.105 167.895 -120 169 -120C170.105 -120 171 -119.105 171 -118Z" fill="#E5F1FF"/>
<path d="M199 -118C199 -116.895 198.105 -116 197 -116C195.895 -116 195 -116.895 195 -118C195 -119.105 195.895 -120 197 -120C198.105 -120 199 -119.105 199 -118Z" fill="#E5F1FF"/>
<path d="M227 -118C227 -116.895 226.105 -116 225 -116C223.895 -116 223 -116.895 223 -118C223 -119.105 223.895 -120 225 -120C226.105 -120 227 -119.105 227 -118Z" fill="#E5F1FF"/>
<path d="M255 -118C255 -116.895 254.105 -116 253 -116C251.895 -116 251 -116.895 251 -118C251 -119.105 251.895 -120 253 -120C254.105 -120 255 -119.105 255 -118Z" fill="#E5F1FF"/>
<path d="M283 -118C283 -116.895 282.105 -116 281 -116C279.895 -116 279 -116.895 279 -118C279 -119.105 279.895 -120 281 -120C282.105 -120 283 -119.105 283 -118Z" fill="#E5F1FF"/>
<path d="M311 -118C311 -116.895 310.105 -116 309 -116C307.895 -116 307 -116.895 307 -118C307 -119.105 307.895 -120 309 -120C310.105 -120 311 -119.105 311 -118Z" fill="#E5F1FF"/>
<path d="M3 -90C3 -88.8954 2.10457 -88 1 -88C-0.10457 -88 -1 -88.8954 -1 -90C-1 -91.1046 -0.10457 -92 1 -92C2.10457 -92 3 -91.1046 3 -90Z" fill="#E5F1FF"/>
<path d="M31 -90C31 -88.8954 30.1046 -88 29 -88C27.8954 -88 27 -88.8954 27 -90C27 -91.1046 27.8954 -92 29 -92C30.1046 -92 31 -91.1046 31 -90Z" fill="#E5F1FF"/>
<path d="M59 -90C59 -88.8954 58.1046 -88 57 -88C55.8954 -88 55 -88.8954 55 -90C55 -91.1046 55.8954 -92 57 -92C58.1046 -92 59 -91.1046 59 -90Z" fill="#E5F1FF"/>
<path d="M87 -90C87 -88.8954 86.1046 -88 85 -88C83.8954 -88 83 -88.8954 83 -90C83 -91.1046 83.8954 -92 85 -92C86.1046 -92 87 -91.1046 87 -90Z" fill="#E5F1FF"/>
<path d="M115 -90C115 -88.8954 114.105 -88 113 -88C111.895 -88 111 -88.8954 111 -90C111 -91.1046 111.895 -92 113 -92C114.105 -92 115 -91.1046 115 -90Z" fill="#E5F1FF"/>
<path d="M143 -90C143 -88.8954 142.105 -88 141 -88C139.895 -88 139 -88.8954 139 -90C139 -91.1046 139.895 -92 141 -92C142.105 -92 143 -91.1046 143 -90Z" fill="#E5F1FF"/>
<path d="M171 -90C171 -88.8954 170.105 -88 169 -88C167.895 -88 167 -88.8954 167 -90C167 -91.1046 167.895 -92 169 -92C170.105 -92 171 -91.1046 171 -90Z" fill="#E5F1FF"/>
<path d="M199 -90C199 -88.8954 198.105 -88 197 -88C195.895 -88 195 -88.8954 195 -90C195 -91.1046 195.895 -92 197 -92C198.105 -92 199 -91.1046 199 -90Z" fill="#E5F1FF"/>
<path d="M227 -90C227 -88.8954 226.105 -88 225 -88C223.895 -88 223 -88.8954 223 -90C223 -91.1046 223.895 -92 225 -92C226.105 -92 227 -91.1046 227 -90Z" fill="#E5F1FF"/>
<path d="M255 -90C255 -88.8954 254.105 -88 253 -88C251.895 -88 251 -88.8954 251 -90C251 -91.1046 251.895 -92 253 -92C254.105 -92 255 -91.1046 255 -90Z" fill="#E5F1FF"/>
<path d="M283 -90C283 -88.8954 282.105 -88 281 -88C279.895 -88 279 -88.8954 279 -90C279 -91.1046 279.895 -92 281 -92C282.105 -92 283 -91.1046 283 -90Z" fill="#E5F1FF"/>
<path d="M311 -90C311 -88.8954 310.105 -88 309 -88C307.895 -88 307 -88.8954 307 -90C307 -91.1046 307.895 -92 309 -92C310.105 -92 311 -91.1046 311 -90Z" fill="#E5F1FF"/>
<path d="M3 -62C3 -60.8954 2.10457 -60 1 -60C-0.10457 -60 -1 -60.8954 -1 -62C-1 -63.1046 -0.10457 -64 1 -64C2.10457 -64 3 -63.1046 3 -62Z" fill="#E5F1FF"/>
<path d="M31 -62C31 -60.8954 30.1046 -60 29 -60C27.8954 -60 27 -60.8954 27 -62C27 -63.1046 27.8954 -64 29 -64C30.1046 -64 31 -63.1046 31 -62Z" fill="#E5F1FF"/>
<path d="M59 -62C59 -60.8954 58.1046 -60 57 -60C55.8954 -60 55 -60.8954 55 -62C55 -63.1046 55.8954 -64 57 -64C58.1046 -64 59 -63.1046 59 -62Z" fill="#E5F1FF"/>
<path d="M87 -62C87 -60.8954 86.1046 -60 85 -60C83.8954 -60 83 -60.8954 83 -62C83 -63.1046 83.8954 -64 85 -64C86.1046 -64 87 -63.1046 87 -62Z" fill="#E5F1FF"/>
<path d="M115 -62C115 -60.8954 114.105 -60 113 -60C111.895 -60 111 -60.8954 111 -62C111 -63.1046 111.895 -64 113 -64C114.105 -64 115 -63.1046 115 -62Z" fill="#E5F1FF"/>
<path d="M143 -62C143 -60.8954 142.105 -60 141 -60C139.895 -60 139 -60.8954 139 -62C139 -63.1046 139.895 -64 141 -64C142.105 -64 143 -63.1046 143 -62Z" fill="#E5F1FF"/>
<path d="M171 -62C171 -60.8954 170.105 -60 169 -60C167.895 -60 167 -60.8954 167 -62C167 -63.1046 167.895 -64 169 -64C170.105 -64 171 -63.1046 171 -62Z" fill="#E5F1FF"/>
<path d="M199 -62C199 -60.8954 198.105 -60 197 -60C195.895 -60 195 -60.8954 195 -62C195 -63.1046 195.895 -64 197 -64C198.105 -64 199 -63.1046 199 -62Z" fill="#E5F1FF"/>
<path d="M227 -62C227 -60.8954 226.105 -60 225 -60C223.895 -60 223 -60.8954 223 -62C223 -63.1046 223.895 -64 225 -64C226.105 -64 227 -63.1046 227 -62Z" fill="#E5F1FF"/>
<path d="M255 -62C255 -60.8954 254.105 -60 253 -60C251.895 -60 251 -60.8954 251 -62C251 -63.1046 251.895 -64 253 -64C254.105 -64 255 -63.1046 255 -62Z" fill="#E5F1FF"/>
<path d="M283 -62C283 -60.8954 282.105 -60 281 -60C279.895 -60 279 -60.8954 279 -62C279 -63.1046 279.895 -64 281 -64C282.105 -64 283 -63.1046 283 -62Z" fill="#E5F1FF"/>
<path d="M311 -62C311 -60.8954 310.105 -60 309 -60C307.895 -60 307 -60.8954 307 -62C307 -63.1046 307.895 -64 309 -64C310.105 -64 311 -63.1046 311 -62Z" fill="#E5F1FF"/>
<path d="M3 -34C3 -32.8954 2.10457 -32 1 -32C-0.10457 -32 -1 -32.8954 -1 -34C-1 -35.1046 -0.10457 -36 1 -36C2.10457 -36 3 -35.1046 3 -34Z" fill="#E5F1FF"/>
<path d="M31 -34C31 -32.8954 30.1046 -32 29 -32C27.8954 -32 27 -32.8954 27 -34C27 -35.1046 27.8954 -36 29 -36C30.1046 -36 31 -35.1046 31 -34Z" fill="#E5F1FF"/>
<path d="M59 -34C59 -32.8954 58.1046 -32 57 -32C55.8954 -32 55 -32.8954 55 -34C55 -35.1046 55.8954 -36 57 -36C58.1046 -36 59 -35.1046 59 -34Z" fill="#E5F1FF"/>
<path d="M87 -34C87 -32.8954 86.1046 -32 85 -32C83.8954 -32 83 -32.8954 83 -34C83 -35.1046 83.8954 -36 85 -36C86.1046 -36 87 -35.1046 87 -34Z" fill="#E5F1FF"/>
<path d="M115 -34C115 -32.8954 114.105 -32 113 -32C111.895 -32 111 -32.8954 111 -34C111 -35.1046 111.895 -36 113 -36C114.105 -36 115 -35.1046 115 -34Z" fill="#E5F1FF"/>
<path d="M143 -34C143 -32.8954 142.105 -32 141 -32C139.895 -32 139 -32.8954 139 -34C139 -35.1046 139.895 -36 141 -36C142.105 -36 143 -35.1046 143 -34Z" fill="#E5F1FF"/>
<path d="M171 -34C171 -32.8954 170.105 -32 169 -32C167.895 -32 167 -32.8954 167 -34C167 -35.1046 167.895 -36 169 -36C170.105 -36 171 -35.1046 171 -34Z" fill="#E5F1FF"/>
<path d="M199 -34C199 -32.8954 198.105 -32 197 -32C195.895 -32 195 -32.8954 195 -34C195 -35.1046 195.895 -36 197 -36C198.105 -36 199 -35.1046 199 -34Z" fill="#E5F1FF"/>
<path d="M227 -34C227 -32.8954 226.105 -32 225 -32C223.895 -32 223 -32.8954 223 -34C223 -35.1046 223.895 -36 225 -36C226.105 -36 227 -35.1046 227 -34Z" fill="#E5F1FF"/>
<path d="M255 -34C255 -32.8954 254.105 -32 253 -32C251.895 -32 251 -32.8954 251 -34C251 -35.1046 251.895 -36 253 -36C254.105 -36 255 -35.1046 255 -34Z" fill="#E5F1FF"/>
<path d="M283 -34C283 -32.8954 282.105 -32 281 -32C279.895 -32 279 -32.8954 279 -34C279 -35.1046 279.895 -36 281 -36C282.105 -36 283 -35.1046 283 -34Z" fill="#E5F1FF"/>
<path d="M311 -34C311 -32.8954 310.105 -32 309 -32C307.895 -32 307 -32.8954 307 -34C307 -35.1046 307.895 -36 309 -36C310.105 -36 311 -35.1046 311 -34Z" fill="#E5F1FF"/>
<path d="M3 -6C3 -4.89543 2.10457 -4 1 -4C-0.10457 -4 -1 -4.89543 -1 -6C-1 -7.10457 -0.10457 -8 1 -8C2.10457 -8 3 -7.10457 3 -6Z" fill="#E5F1FF"/>
<path d="M31 -6C31 -4.89543 30.1046 -4 29 -4C27.8954 -4 27 -4.89543 27 -6C27 -7.10457 27.8954 -8 29 -8C30.1046 -8 31 -7.10457 31 -6Z" fill="#E5F1FF"/>
<path d="M59 -6C59 -4.89543 58.1046 -4 57 -4C55.8954 -4 55 -4.89543 55 -6C55 -7.10457 55.8954 -8 57 -8C58.1046 -8 59 -7.10457 59 -6Z" fill="#E5F1FF"/>
<path d="M87 -6C87 -4.89543 86.1046 -4 85 -4C83.8954 -4 83 -4.89543 83 -6C83 -7.10457 83.8954 -8 85 -8C86.1046 -8 87 -7.10457 87 -6Z" fill="#E5F1FF"/>
<path d="M115 -6C115 -4.89543 114.105 -4 113 -4C111.895 -4 111 -4.89543 111 -6C111 -7.10457 111.895 -8 113 -8C114.105 -8 115 -7.10457 115 -6Z" fill="#E5F1FF"/>
<path d="M143 -6C143 -4.89543 142.105 -4 141 -4C139.895 -4 139 -4.89543 139 -6C139 -7.10457 139.895 -8 141 -8C142.105 -8 143 -7.10457 143 -6Z" fill="#E5F1FF"/>
<path d="M171 -6C171 -4.89543 170.105 -4 169 -4C167.895 -4 167 -4.89543 167 -6C167 -7.10457 167.895 -8 169 -8C170.105 -8 171 -7.10457 171 -6Z" fill="#E5F1FF"/>
<path d="M199 -6C199 -4.89543 198.105 -4 197 -4C195.895 -4 195 -4.89543 195 -6C195 -7.10457 195.895 -8 197 -8C198.105 -8 199 -7.10457 199 -6Z" fill="#E5F1FF"/>
<path d="M227 -6C227 -4.89543 226.105 -4 225 -4C223.895 -4 223 -4.89543 223 -6C223 -7.10457 223.895 -8 225 -8C226.105 -8 227 -7.10457 227 -6Z" fill="#E5F1FF"/>
<path d="M255 -6C255 -4.89543 254.105 -4 253 -4C251.895 -4 251 -4.89543 251 -6C251 -7.10457 251.895 -8 253 -8C254.105 -8 255 -7.10457 255 -6Z" fill="#E5F1FF"/>
<path d="M283 -6C283 -4.89543 282.105 -4 281 -4C279.895 -4 279 -4.89543 279 -6C279 -7.10457 279.895 -8 281 -8C282.105 -8 283 -7.10457 283 -6Z" fill="#E5F1FF"/>
<path d="M311 -6C311 -4.89543 310.105 -4 309 -4C307.895 -4 307 -4.89543 307 -6C307 -7.10457 307.895 -8 309 -8C310.105 -8 311 -7.10457 311 -6Z" fill="#E5F1FF"/>
<path d="M3 22C3 23.1046 2.10457 24 1 24C-0.10457 24 -1 23.1046 -1 22C-1 20.8954 -0.10457 20 1 20C2.10457 20 3 20.8954 3 22Z" fill="#E5F1FF"/>
<path d="M31 22C31 23.1046 30.1046 24 29 24C27.8954 24 27 23.1046 27 22C27 20.8954 27.8954 20 29 20C30.1046 20 31 20.8954 31 22Z" fill="#E5F1FF"/>
<path d="M59 22C59 23.1046 58.1046 24 57 24C55.8954 24 55 23.1046 55 22C55 20.8954 55.8954 20 57 20C58.1046 20 59 20.8954 59 22Z" fill="#E5F1FF"/>
<path d="M87 22C87 23.1046 86.1046 24 85 24C83.8954 24 83 23.1046 83 22C83 20.8954 83.8954 20 85 20C86.1046 20 87 20.8954 87 22Z" fill="#E5F1FF"/>
<path d="M115 22C115 23.1046 114.105 24 113 24C111.895 24 111 23.1046 111 22C111 20.8954 111.895 20 113 20C114.105 20 115 20.8954 115 22Z" fill="#E5F1FF"/>
<path d="M143 22C143 23.1046 142.105 24 141 24C139.895 24 139 23.1046 139 22C139 20.8954 139.895 20 141 20C142.105 20 143 20.8954 143 22Z" fill="#E5F1FF"/>
<path d="M171 22C171 23.1046 170.105 24 169 24C167.895 24 167 23.1046 167 22C167 20.8954 167.895 20 169 20C170.105 20 171 20.8954 171 22Z" fill="#E5F1FF"/>
<path d="M199 22C199 23.1046 198.105 24 197 24C195.895 24 195 23.1046 195 22C195 20.8954 195.895 20 197 20C198.105 20 199 20.8954 199 22Z" fill="#E5F1FF"/>
<path d="M227 22C227 23.1046 226.105 24 225 24C223.895 24 223 23.1046 223 22C223 20.8954 223.895 20 225 20C226.105 20 227 20.8954 227 22Z" fill="#E5F1FF"/>
<path d="M255 22C255 23.1046 254.105 24 253 24C251.895 24 251 23.1046 251 22C251 20.8954 251.895 20 253 20C254.105 20 255 20.8954 255 22Z" fill="#E5F1FF"/>
<path d="M283 22C283 23.1046 282.105 24 281 24C279.895 24 279 23.1046 279 22C279 20.8954 279.895 20 281 20C282.105 20 283 20.8954 283 22Z" fill="#E5F1FF"/>
<path d="M311 22C311 23.1046 310.105 24 309 24C307.895 24 307 23.1046 307 22C307 20.8954 307.895 20 309 20C310.105 20 311 20.8954 311 22Z" fill="#E5F1FF"/>
<path d="M3 50C3 51.1046 2.10457 52 1 52C-0.10457 52 -1 51.1046 -1 50C-1 48.8954 -0.10457 48 1 48C2.10457 48 3 48.8954 3 50Z" fill="#E5F1FF"/>
<path d="M31 50C31 51.1046 30.1046 52 29 52C27.8954 52 27 51.1046 27 50C27 48.8954 27.8954 48 29 48C30.1046 48 31 48.8954 31 50Z" fill="#E5F1FF"/>
<path d="M59 50C59 51.1046 58.1046 52 57 52C55.8954 52 55 51.1046 55 50C55 48.8954 55.8954 48 57 48C58.1046 48 59 48.8954 59 50Z" fill="#E5F1FF"/>
<path d="M87 50C87 51.1046 86.1046 52 85 52C83.8954 52 83 51.1046 83 50C83 48.8954 83.8954 48 85 48C86.1046 48 87 48.8954 87 50Z" fill="#E5F1FF"/>
<path d="M115 50C115 51.1046 114.105 52 113 52C111.895 52 111 51.1046 111 50C111 48.8954 111.895 48 113 48C114.105 48 115 48.8954 115 50Z" fill="#E5F1FF"/>
<path d="M143 50C143 51.1046 142.105 52 141 52C139.895 52 139 51.1046 139 50C139 48.8954 139.895 48 141 48C142.105 48 143 48.8954 143 50Z" fill="#E5F1FF"/>
<path d="M171 50C171 51.1046 170.105 52 169 52C167.895 52 167 51.1046 167 50C167 48.8954 167.895 48 169 48C170.105 48 171 48.8954 171 50Z" fill="#E5F1FF"/>
<path d="M199 50C199 51.1046 198.105 52 197 52C195.895 52 195 51.1046 195 50C195 48.8954 195.895 48 197 48C198.105 48 199 48.8954 199 50Z" fill="#E5F1FF"/>
<path d="M227 50C227 51.1046 226.105 52 225 52C223.895 52 223 51.1046 223 50C223 48.8954 223.895 48 225 48C226.105 48 227 48.8954 227 50Z" fill="#E5F1FF"/>
<path d="M255 50C255 51.1046 254.105 52 253 52C251.895 52 251 51.1046 251 50C251 48.8954 251.895 48 253 48C254.105 48 255 48.8954 255 50Z" fill="#E5F1FF"/>
<path d="M283 50C283 51.1046 282.105 52 281 52C279.895 52 279 51.1046 279 50C279 48.8954 279.895 48 281 48C282.105 48 283 48.8954 283 50Z" fill="#E5F1FF"/>
<path d="M311 50C311 51.1046 310.105 52 309 52C307.895 52 307 51.1046 307 50C307 48.8954 307.895 48 309 48C310.105 48 311 48.8954 311 50Z" fill="#E5F1FF"/>
<path d="M3 78C3 79.1046 2.10457 80 1 80C-0.10457 80 -1 79.1046 -1 78C-1 76.8954 -0.10457 76 1 76C2.10457 76 3 76.8954 3 78Z" fill="#E5F1FF"/>
<path d="M31 78C31 79.1046 30.1046 80 29 80C27.8954 80 27 79.1046 27 78C27 76.8954 27.8954 76 29 76C30.1046 76 31 76.8954 31 78Z" fill="#E5F1FF"/>
<path d="M59 78C59 79.1046 58.1046 80 57 80C55.8954 80 55 79.1046 55 78C55 76.8954 55.8954 76 57 76C58.1046 76 59 76.8954 59 78Z" fill="#E5F1FF"/>
<path d="M87 78C87 79.1046 86.1046 80 85 80C83.8954 80 83 79.1046 83 78C83 76.8954 83.8954 76 85 76C86.1046 76 87 76.8954 87 78Z" fill="#E5F1FF"/>
<path d="M115 78C115 79.1046 114.105 80 113 80C111.895 80 111 79.1046 111 78C111 76.8954 111.895 76 113 76C114.105 76 115 76.8954 115 78Z" fill="#E5F1FF"/>
<path d="M143 78C143 79.1046 142.105 80 141 80C139.895 80 139 79.1046 139 78C139 76.8954 139.895 76 141 76C142.105 76 143 76.8954 143 78Z" fill="#E5F1FF"/>
<path d="M171 78C171 79.1046 170.105 80 169 80C167.895 80 167 79.1046 167 78C167 76.8954 167.895 76 169 76C170.105 76 171 76.8954 171 78Z" fill="#E5F1FF"/>
<path d="M199 78C199 79.1046 198.105 80 197 80C195.895 80 195 79.1046 195 78C195 76.8954 195.895 76 197 76C198.105 76 199 76.8954 199 78Z" fill="#E5F1FF"/>
<path d="M227 78C227 79.1046 226.105 80 225 80C223.895 80 223 79.1046 223 78C223 76.8954 223.895 76 225 76C226.105 76 227 76.8954 227 78Z" fill="#E5F1FF"/>
<path d="M255 78C255 79.1046 254.105 80 253 80C251.895 80 251 79.1046 251 78C251 76.8954 251.895 76 253 76C254.105 76 255 76.8954 255 78Z" fill="#E5F1FF"/>
<path d="M283 78C283 79.1046 282.105 80 281 80C279.895 80 279 79.1046 279 78C279 76.8954 279.895 76 281 76C282.105 76 283 76.8954 283 78Z" fill="#E5F1FF"/>
<path d="M311 78C311 79.1046 310.105 80 309 80C307.895 80 307 79.1046 307 78C307 76.8954 307.895 76 309 76C310.105 76 311 76.8954 311 78Z" fill="#E5F1FF"/>
</svg>
